<mxfile host="app.diagrams.net" agent="Mozilla/5.0 (Windows NT 10.0; Win64; x64; rv:129.0) Gecko/20100101 Firefox/129.0" version="24.7.7">
  <diagram name="Page-1" id="0_ADLpW2v7JxLuky16Hd">
    <mxGraphModel dx="2603" dy="774" grid="1" gridSize="10" guides="1" tooltips="1" connect="1" arrows="1" fold="1" page="1" pageScale="1" pageWidth="1169" pageHeight="827" math="0" shadow="0">
      <root>
        <mxCell id="0" />
        <mxCell id="1" parent="0" />
        <mxCell id="p0PM1gi7-nqcBXU_ZiSu-9" value="Vertical Container" style="swimlane;whiteSpace=wrap;html=1;" vertex="1" parent="1">
          <mxGeometry x="460" y="20" width="200" height="200" as="geometry" />
        </mxCell>
        <mxCell id="p0PM1gi7-nqcBXU_ZiSu-10" value="success=verifUser0" style="html=1;whiteSpace=wrap;aspect=fixed;shape=isoRectangle;" vertex="1" parent="1">
          <mxGeometry x="485" y="240" width="150" height="90" as="geometry" />
        </mxCell>
        <mxCell id="p0PM1gi7-nqcBXU_ZiSu-15" value="" style="endArrow=classic;html=1;rounded=0;" edge="1" parent="1">
          <mxGeometry width="50" height="50" relative="1" as="geometry">
            <mxPoint x="270" y="119.5" as="sourcePoint" />
            <mxPoint x="440" y="119.5" as="targetPoint" />
            <Array as="points">
              <mxPoint x="320" y="119.5" />
            </Array>
          </mxGeometry>
        </mxCell>
        <mxCell id="p0PM1gi7-nqcBXU_ZiSu-16" value="" style="endArrow=classic;html=1;rounded=0;strokeColor=none;" edge="1" parent="1" source="p0PM1gi7-nqcBXU_ZiSu-21">
          <mxGeometry width="50" height="50" relative="1" as="geometry">
            <mxPoint x="1120" y="560" as="sourcePoint" />
            <mxPoint x="670" y="160" as="targetPoint" />
            <Array as="points">
              <mxPoint x="1140" y="540" />
              <mxPoint x="1120" y="160" />
              <mxPoint x="930" y="160" />
              <mxPoint x="920" y="170" />
            </Array>
          </mxGeometry>
        </mxCell>
        <mxCell id="p0PM1gi7-nqcBXU_ZiSu-21" value="" style="swimlane;startSize=0;aspect=fixed;" vertex="1" parent="1">
          <mxGeometry x="-100" y="380" width="1140" height="380" as="geometry" />
        </mxCell>
        <mxCell id="p0PM1gi7-nqcBXU_ZiSu-18" value="nav bar" style="swimlane;whiteSpace=wrap;html=1;" vertex="1" parent="p0PM1gi7-nqcBXU_ZiSu-21">
          <mxGeometry x="40" y="70" width="200" height="200" as="geometry" />
        </mxCell>
        <mxCell id="p0PM1gi7-nqcBXU_ZiSu-20" value="&lt;div&gt;&lt;br&gt;&lt;/div&gt;&lt;div&gt;&lt;br&gt;&lt;/div&gt;&lt;div&gt;&lt;br&gt;&lt;/div&gt;&lt;div&gt;&lt;br&gt;&lt;/div&gt;&lt;div&gt;&lt;br&gt;&lt;/div&gt;&lt;div&gt;&lt;br&gt;&lt;/div&gt;&lt;div&gt;&lt;br&gt;&lt;/div&gt;&lt;div&gt;&lt;br&gt;&lt;/div&gt;&lt;div&gt;&lt;br&gt;&lt;/div&gt;&lt;div&gt;&lt;br&gt;&lt;/div&gt;&lt;div&gt;&lt;br&gt;&lt;/div&gt;&lt;div&gt;&lt;br&gt;&lt;/div&gt;&lt;div&gt;&lt;br&gt;&lt;/div&gt;&lt;div&gt;&lt;br&gt;&lt;/div&gt;&lt;div&gt;&lt;br&gt;&lt;/div&gt;&lt;div&gt;&lt;br&gt;&lt;/div&gt;&lt;div&gt;&lt;br&gt;&lt;/div&gt;&lt;div&gt;&lt;br&gt;&lt;/div&gt;&lt;div&gt;&lt;br&gt;&lt;/div&gt;&lt;div&gt;&lt;br&gt;&lt;/div&gt;&lt;div&gt;&lt;br&gt;&lt;/div&gt;&lt;div&gt;&lt;br&gt;&lt;/div&gt;&lt;div&gt;&lt;br&gt;&lt;/div&gt;" style="swimlane;whiteSpace=wrap;html=1;startSize=23;" vertex="1" parent="p0PM1gi7-nqcBXU_ZiSu-21">
          <mxGeometry x="450" y="70" width="200" height="200" as="geometry" />
        </mxCell>
        <mxCell id="p0PM1gi7-nqcBXU_ZiSu-19" value="decpnnecter" style="swimlane;whiteSpace=wrap;html=1;startSize=23;" vertex="1" parent="p0PM1gi7-nqcBXU_ZiSu-21">
          <mxGeometry x="860" y="70" width="200" height="200" as="geometry" />
        </mxCell>
        <mxCell id="p0PM1gi7-nqcBXU_ZiSu-38" value="" style="endArrow=none;html=1;rounded=0;" edge="1" parent="p0PM1gi7-nqcBXU_ZiSu-21">
          <mxGeometry width="50" height="50" relative="1" as="geometry">
            <mxPoint x="1060" y="170" as="sourcePoint" />
            <mxPoint x="1140" y="170" as="targetPoint" />
          </mxGeometry>
        </mxCell>
        <mxCell id="p0PM1gi7-nqcBXU_ZiSu-39" value="" style="endArrow=classic;html=1;rounded=0;" edge="1" parent="p0PM1gi7-nqcBXU_ZiSu-21">
          <mxGeometry width="50" height="50" relative="1" as="geometry">
            <mxPoint x="740" y="205" as="sourcePoint" />
            <mxPoint x="860" y="205" as="targetPoint" />
            <Array as="points">
              <mxPoint x="650" y="205" />
              <mxPoint x="730" y="205" />
            </Array>
          </mxGeometry>
        </mxCell>
        <mxCell id="p0PM1gi7-nqcBXU_ZiSu-40" value="" style="endArrow=classic;html=1;rounded=0;" edge="1" parent="p0PM1gi7-nqcBXU_ZiSu-21">
          <mxGeometry width="50" height="50" relative="1" as="geometry">
            <mxPoint x="332" y="189.5" as="sourcePoint" />
            <mxPoint x="452" y="189.5" as="targetPoint" />
            <Array as="points">
              <mxPoint x="242" y="189.5" />
              <mxPoint x="322" y="189.5" />
            </Array>
          </mxGeometry>
        </mxCell>
        <mxCell id="p0PM1gi7-nqcBXU_ZiSu-22" value="" style="endArrow=classic;html=1;rounded=0;entryX=0.579;entryY=0;entryDx=0;entryDy=0;entryPerimeter=0;exitX=0.52;exitY=1;exitDx=0;exitDy=0;exitPerimeter=0;" edge="1" parent="1" source="p0PM1gi7-nqcBXU_ZiSu-10" target="p0PM1gi7-nqcBXU_ZiSu-21">
          <mxGeometry width="50" height="50" relative="1" as="geometry">
            <mxPoint x="560" y="340" as="sourcePoint" />
            <mxPoint x="610" y="290" as="targetPoint" />
          </mxGeometry>
        </mxCell>
        <mxCell id="p0PM1gi7-nqcBXU_ZiSu-23" value="[success=ok]" style="text;html=1;align=center;verticalAlign=middle;resizable=0;points=[];autosize=1;strokeColor=none;fillColor=none;" vertex="1" parent="1">
          <mxGeometry x="520" y="330" width="100" height="30" as="geometry" />
        </mxCell>
        <mxCell id="p0PM1gi7-nqcBXU_ZiSu-25" value="" style="endArrow=classic;html=1;rounded=0;entryX=0;entryY=0.75;entryDx=0;entryDy=0;" edge="1" parent="1">
          <mxGeometry width="50" height="50" relative="1" as="geometry">
            <mxPoint x="480" y="285" as="sourcePoint" />
            <mxPoint x="460" y="175" as="targetPoint" />
            <Array as="points">
              <mxPoint x="320" y="285" />
              <mxPoint x="320" y="175" />
            </Array>
          </mxGeometry>
        </mxCell>
        <mxCell id="p0PM1gi7-nqcBXU_ZiSu-26" value="[succes=NO OK]" style="text;html=1;align=center;verticalAlign=middle;resizable=0;points=[];autosize=1;strokeColor=none;fillColor=none;" vertex="1" parent="1">
          <mxGeometry x="325" y="248" width="110" height="30" as="geometry" />
        </mxCell>
        <mxCell id="p0PM1gi7-nqcBXU_ZiSu-27" value="LOADpage(PAGE+LOGIN&quot;)" style="text;html=1;align=center;verticalAlign=middle;resizable=0;points=[];autosize=1;strokeColor=none;fillColor=none;" vertex="1" parent="1">
          <mxGeometry x="265" y="288" width="170" height="30" as="geometry" />
        </mxCell>
        <mxCell id="p0PM1gi7-nqcBXU_ZiSu-28" value="" style="shape=waypoint;sketch=0;fillStyle=solid;size=6;pointerEvents=1;points=[];fillColor=none;resizable=0;rotatable=0;perimeter=centerPerimeter;snapToPoint=1;strokeWidth=10;" vertex="1" parent="1">
          <mxGeometry x="260" y="110" width="20" height="20" as="geometry" />
        </mxCell>
        <mxCell id="p0PM1gi7-nqcBXU_ZiSu-30" value="" style="endArrow=open;startArrow=cross;endFill=0;startFill=0;endSize=8;startSize=10;html=1;rounded=0;" edge="1" parent="1">
          <mxGeometry width="160" relative="1" as="geometry">
            <mxPoint x="480" y="380" as="sourcePoint" />
            <mxPoint x="640" y="380" as="targetPoint" />
          </mxGeometry>
        </mxCell>
        <mxCell id="p0PM1gi7-nqcBXU_ZiSu-31" value="return" style="html=1;verticalAlign=bottom;endArrow=open;dashed=1;endSize=8;curved=0;rounded=0;" edge="1" parent="1">
          <mxGeometry relative="1" as="geometry">
            <mxPoint x="600" y="380" as="sourcePoint" />
            <mxPoint x="520" y="380" as="targetPoint" />
          </mxGeometry>
        </mxCell>
        <mxCell id="p0PM1gi7-nqcBXU_ZiSu-32" value="" style="endArrow=open;endFill=1;endSize=12;html=1;rounded=0;" edge="1" parent="1">
          <mxGeometry width="160" relative="1" as="geometry">
            <mxPoint x="1040" y="560" as="sourcePoint" />
            <mxPoint x="650" y="120" as="targetPoint" />
            <Array as="points">
              <mxPoint x="1120" y="560" />
              <mxPoint x="1120" y="120" />
            </Array>
          </mxGeometry>
        </mxCell>
        <mxCell id="p0PM1gi7-nqcBXU_ZiSu-37" value="" style="line;strokeWidth=4;html=1;perimeter=backbonePerimeter;points=[];outlineConnect=0;" vertex="1" parent="1">
          <mxGeometry x="-610" y="258" width="160" height="10" as="geometry" />
        </mxCell>
      </root>
    </mxGraphModel>
  </diagram>
</mxfile>
